PathFileType	4	(X/Y/Z)	C:/Users/opensim2020/Desktop/walking_exp_matlab/subject01_walking11_straight_02.trc																																																																																																																																		
DataRate	CameraRate	NumFrames	NumMarkers	Units	OrigDataRate	OrigDataStartFrame	OrigNumFrames																																																																																																																														
100	100	4	44	mm	100	1941	266																																																																																																																														
Frame#	Time	LFHD			RFHD			LBHD			RBHD			C7			T10			CLAV			STRN			RBAK			LSHO			LUPA			LELB			LFRM			LWRA			LWRB			LFIN			RSHO			RUPA			RELB			RFRM			RWRA			RWRB			RFIN			LASI			RASI			LPSI			RPSI			LTHI			LKNE			LTIB			LANK			LHEE			LTOE			RTHI			RKNE			RTIB			RANK			RHEE			RTOE			*39			*40			*41			*42			*43		
		X1	Y1	Z1	X2	Y2	Z2	X3	Y3	Z3	X4	Y4	Z4	X5	Y5	Z5	X6	Y6	Z6	X7	Y7	Z7	X8	Y8	Z8	X9	Y9	Z9	X10	Y10	Z10	X11	Y11	Z11	X12	Y12	Z12	X13	Y13	Z13	X14	Y14	Z14	X15	Y15	Z15	X16	Y16	Z16	X17	Y17	Z17	X18	Y18	Z18	X19	Y19	Z19	X20	Y20	Z20	X21	Y21	Z21	X22	Y22	Z22	X23	Y23	Z23	X24	Y24	Z24	X25	Y25	Z25	X26	Y26	Z26	X27	Y27	Z27	X28	Y28	Z28	X29	Y29	Z29	X30	Y30	Z30	X31	Y31	Z31	X32	Y32	Z32	X33	Y33	Z33	X34	Y34	Z34	X35	Y35	Z35	X36	Y36	Z36	X37	Y37	Z37	X38	Y38	Z38	X39	Y39	Z39	X40	Y40	Z40	X41	Y41	Z41	X42	Y42	Z42	X43	Y43	Z43	X44	Y44	Z44
																																																																																																																																					
1	0	-943.60077	1677.50854	987.07294	-912.14905	1685.95557	1097.74976	-1056.15186	1632.85278	1015.55298	-1026.72449	1641.1897	1132.74768	-1089.55322	1441.83069	1049.45605	-1130.89453	1149.62134	1059.17395	-946.09137	1373.18933	1054.11316	-906.5274	1216.76697	1052.16809	-1150.01428	1249.25415	1126.98157	-1004.98999	1403.20911	890.87708	-1026.10828	1217.22559	807.99701	-1027.02112	1065.11975	807.78815	-974.22833	964.77435	780.66858	-878.01227	863.73138	795.32391	-931.69946	850.13403	772.17499	-872.25024	791.12872	758.29193	-1016.39636	1405.6554	1201.75647	-1093.14673	1212.73401	1301.24097	-1102.22144	1088.52502	1305.26892	-1086.11011	971.87915	1344.77649	-1010.40289	850.68335	1343.51038	-1059.36035	855.52979	1375.73267	-1027.7489	773.68176	1378.7168	-962.19397	936.34937	961.50726	-967.49847	944.67114	1177.4884	-1148.81775	952.89252	1011.90997	-1148.87549	955.38879	1158.41406	-993.72174	602.51312	925.28387	-1003.9859	468.63861	949.74445	-1061.76697	286.40469	953.09821	-1094.27893	74.79719	1020.77173	-1138.2478	47.19168	1075.76221	-948.21338	39.3806	1007.97858	-931.17468	625.81769	1248.3811	-886.8233	472.5813	1227.46143	-979.99347	321.80713	1233.31604	-1055.76392	130.05222	1188.87805	-1106.09375	99.66708	1132.30627	-936.77563	57.63079	1207.91418	-927.48804	1719.29114	1076.36926	-1973.09631	1023.51398	3101.98438	-2012.50098	1021.98694	3140.7688	NaN	NaN	NaN	NaN	NaN	NaN
2	0.01	-936.37714	1677.34119	987.50201	-904.82489	1685.60107	1098.04602	-1049.07727	1633.02161	1015.84851	-1019.51196	1640.91248	1132.34131	-1082.74194	1441.87671	1049.60645	-1124.47437	1149.68787	1059.20044	-939.42499	1373.06848	1054.05347	-900.0976	1216.42834	1051.91992	-1143.35059	1249.19214	1126.90417	-998.18378	1403.40283	890.97363	-1018.78442	1217.52905	807.67529	-1019.60968	1065.52124	807.11322	-965.5174	965.62939	780.12866	-868.19727	865.63983	794.80774	-921.745	851.50452	771.71741	-861.57819	793.20416	757.5802	-1009.59558	1405.36462	1201.81311	-1086.66064	1212.41626	1301.01685	-1095.76428	1088.18835	1305.07678	-1079.58801	971.60858	1344.68701	-1003.91302	850.49091	1343.21582	-1052.70471	855.31	1375.67236	-1020.85455	773.5603	1378.6499	-956.56519	935.98816	961.09387	-960.77759	944.85956	1177.16809	-1142.84485	952.909	1012.38422	-1142.30029	955.57745	1158.90417	-990.28168	602.08936	925.34796	-1001.61084	468.32791	949.56281	-1060.39575	286.38321	953.18646	-1094.00342	74.84512	1020.85962	-1138.38611	47.36541	1075.7323	-948.05945	39.2457	1007.9834	-923.89606	626.21375	1248.22632	-878.24237	473.54532	1226.77271	-965.0387	319.28397	1233.61267	-1032.27112	123.74202	1189.89502	-1081.4043	91.13416	1133.6051	-909.98615	57.16815	1207.8562	-920.14752	1718.84558	1076.55835	-1972.9657	1023.95471	3102.11792	-2012.55908	1022.18219	3140.61353	NaN	NaN	NaN	NaN	NaN	NaN
3	0.02	-929.15601	1677.1947	987.91772	-897.52618	1685.21655	1098.32947	-1041.97192	1633.11096	1016.24872	-1012.30048	1640.84753	1132.83093	-1075.90234	1441.87061	1049.74707	-1118.28662	1149.77625	1059.2926	-932.67035	1372.86914	1054.2677	-893.6095	1216.13391	1051.63281	-1136.68604	1249.05493	1126.86694	-991.34271	1403.56665	891.0993	-1011.69696	1217.81433	807.47559	-1011.82288	1065.68689	806.80182	-956.87646	966.39624	779.64349	-858.56018	867.46405	794.43372	-911.84552	852.75793	771.3905	-851.09009	795.16638	757.2309	-1002.789	1405.07727	1201.91333	-1080.16602	1212.11194	1300.97778	-1089.4751	1087.96106	1305.18335	-1073.05151	971.17084	1344.49792	-997.02405	850.33185	1343.3208	-1046.14844	855.19141	1375.80249	-1013.86859	773.44135	1378.70764	-950.8548	935.54999	960.69946	-953.87842	944.83411	1177.02734	-1136.8877	952.85986	1012.93317	-1135.72241	955.73438	1159.41968	-986.84991	601.66101	925.4234	-999.30762	467.83167	949.72241	-1059.07776	286.36523	953.33698	-1093.80969	74.8983	1020.90894	-1138.1001	47.61889	1075.88696	-948.19714	39.17408	1008.04675	-917.14545	626.27594	1247.77466	-870.08154	474.18726	1225.85095	-950.55396	317.01172	1233.73938	-1008.15753	117.57734	1190.42944	-1056.38147	83.09832	1134.93311	-883.01587	56.37204	1207.81335	-912.78033	1718.68005	1077.10278	-1972.99182	1023.91968	3102.18872	-2012.58203	1022.01959	3140.6416	NaN	NaN	NaN	NaN	NaN	NaN
4	0.03	-922.00323	1676.94861	988.15961	-890.25226	1684.81921	1098.64063	-1034.88916	1633.14355	1016.70758	-1005.09662	1640.63684	1133.27307	-1069.11707	1441.76953	1049.94507	-1111.50342	1149.59534	1059.45032	-925.96216	1372.6001	1054.18518	-887.12335	1215.82886	1051.52087	-1130.01941	1248.92371	1126.92737	-984.48151	1403.66162	891.22162	-1004.64178	1218.0752	807.36481	-1004.40338	1065.97473	806.20496	-948.35571	967.13159	779.16345	-849.08209	869.21545	794.1073	-902.14459	853.95502	770.82385	-840.58862	797.23334	756.5744	-995.92651	1404.68591	1202.12378	-1073.63232	1211.74988	1300.82666	-1082.88098	1087.53381	1305.04614	-1066.43372	970.81372	1344.50464	-990.25189	850.13275	1343.29456	-1039.177	854.74194	1375.6001	-1006.78564	773.3595	1378.94922	-945.20709	934.96674	960.48206	-947.08795	944.84076	1176.65173	-1130.84155	952.77649	1013.55536	-1128.91687	955.77747	1159.98706	-983.27051	601.19507	925.64893	-996.87653	467.42682	949.65143	-1057.74121	286.35059	953.46899	-1093.52234	74.88069	1020.94818	-1138.0116	47.83455	1075.94189	-948.11554	39.30375	1008.01263	-910.73627	626.20856	1247.67798	-862.24573	474.82239	1224.94226	-936.44861	314.77115	1233.73267	-984.37225	112.26702	1191.47278	-1031.04773	75.63976	1136.46924	-856.40198	56.28291	1207.29065	-905.3988	1718.37292	1077.5603	-1973.13196	1023.49249	3101.91187	-2012.4895	1021.93994	3140.75049	NaN	NaN	NaN	NaN	NaN	NaN
